<svg width="26" height="26" viewBox="0 0 26 26" fill="none" xmlns="http://www.w3.org/2000/svg">
<path d="M5 8.41528C5 6.44862 5.84285 4.56252 7.34315 3.17188C8.84344 1.78125 10.8783 1 13 1C15.1217 1 17.1566 1.78125 18.6569 3.17188C20.1571 4.56252 21 6.44862 21 8.41528C21 17.0664 25 19.5382 25 19.5382H1C1 19.5382 5 17.0664 5 8.41528Z" fill="black" stroke="black" stroke-width="0.5" stroke-linecap="round" stroke-linejoin="round"/>
<path d="M8.83813 22.7188C9.24789 23.4096 9.85027 23.9858 10.5823 24.387C11.3144 24.7883 12.1493 25 12.9998 25C13.8503 25 14.6852 24.7883 15.4173 24.387C16.1493 23.9858 16.7517 23.4096 17.1615 22.7188" fill="black"/>
<path d="M8.83813 22.7188C9.24789 23.4096 9.85027 23.9858 10.5823 24.387C11.3144 24.7883 12.1493 25 12.9998 25C13.8503 25 14.6852 24.7883 15.4173 24.387C16.1493 23.9858 16.7517 23.4096 17.1615 22.7188H8.83813Z" stroke="black" stroke-width="0.5" stroke-linecap="round" stroke-linejoin="round"/>
</svg>
