<svg width="60" height="24" viewBox="0 0 60 24" fill="none" xmlns="http://www.w3.org/2000/svg">
<path d="M-9.15534e-05 12C-9.15534e-05 5.37258 5.37249 0 11.9999 0H47.9999C54.6273 0 59.9999 5.37258 59.9999 12C59.9999 18.6274 54.6273 24 47.9999 24H11.9999C5.37249 24 -9.15534e-05 18.6274 -9.15534e-05 12Z" fill="#FF364A"/>
<path d="M25.156 6.366H26.626V15.732H25.156V6.366ZM26.192 10.146H28.432V11.364H26.192V10.146ZM18.534 17.72H27.144V18.91H18.534V17.72ZM18.534 14.766H20.004V18.224H18.534V14.766ZM20.2 7.234C22.132 7.234 23.602 8.564 23.602 10.426C23.602 12.288 22.132 13.618 20.2 13.618C18.268 13.618 16.812 12.288 16.812 10.426C16.812 8.564 18.268 7.234 20.2 7.234ZM20.2 8.508C19.094 8.508 18.24 9.264 18.24 10.426C18.24 11.588 19.094 12.344 20.2 12.344C21.32 12.344 22.174 11.588 22.174 10.426C22.174 9.264 21.32 8.508 20.2 8.508ZM32.5329 7.15H33.7509V8.634C33.7509 11.154 32.4629 13.24 30.1809 14.066L29.3969 12.918C31.4409 12.218 32.5329 10.51 32.5329 8.634V7.15ZM32.8129 7.15H34.0029V8.662C34.0029 10.342 35.1089 11.966 37.0549 12.638L36.3129 13.786C34.0869 13.016 32.8129 10.986 32.8129 8.662V7.15ZM38.0349 6.366H39.5049V15.774H38.0349V6.366ZM39.0709 10.188H41.3109V11.406H39.0709V10.188ZM31.4269 17.72H40.0229V18.91H31.4269V17.72ZM31.4269 14.878H32.9109V18.322H31.4269V14.878Z" fill="white"/>
</svg>
