<svg width="80" height="24" viewBox="0 0 80 24" fill="none" xmlns="http://www.w3.org/2000/svg">
<path d="M-0.000122071 12C-0.000122071 5.37258 5.37246 0 11.9999 0H67.9999C74.6273 0 79.9999 5.37258 79.9999 12C79.9999 18.6274 74.6273 24 67.9999 24H11.9999C5.37246 24 -0.000122071 18.6274 -0.000122071 12Z" fill="#FF364A"/>
<path d="M20.816 7.57H26.822V16.026H20.816V7.57ZM25.394 8.732H22.258V14.85H25.394V8.732ZM29.202 6.352H30.672V19.176H29.202V6.352ZM35.7529 10.678H37.2089V13.058H35.7529V10.678ZM40.3589 10.678H41.8149V13.058H40.3589V10.678ZM33.0089 12.582H44.5729V13.744H33.0089V12.582ZM38.7769 14.57C41.5209 14.57 43.1869 15.396 43.1869 16.852C43.1869 18.322 41.5209 19.148 38.7769 19.148C36.0189 19.148 34.3669 18.322 34.3669 16.852C34.3669 15.396 36.0189 14.57 38.7769 14.57ZM38.7769 15.69C36.9009 15.69 35.8509 16.096 35.8509 16.852C35.8509 17.622 36.9009 18.028 38.7769 18.028C40.6529 18.028 41.7029 17.622 41.7029 16.852C41.7029 16.096 40.6529 15.69 38.7769 15.69ZM38.7909 6.576C41.5909 6.576 43.3549 7.486 43.3549 8.998C43.3549 10.51 41.5909 11.392 38.7909 11.392C35.9909 11.392 34.2409 10.51 34.2409 8.998C34.2409 7.486 35.9909 6.576 38.7909 6.576ZM38.7909 7.71C36.8869 7.71 35.7529 8.158 35.7529 8.998C35.7529 9.824 36.8869 10.272 38.7909 10.272C40.7089 10.272 41.8429 9.824 41.8429 8.998C41.8429 8.158 40.7089 7.71 38.7909 7.71ZM54.9738 6.366H56.4438V12.918H54.9738V6.366ZM48.0578 13.534H56.4438V16.782H49.5138V18.322H48.0858V15.704H54.9878V14.668H48.0578V13.534ZM48.0858 17.888H56.8218V19.05H48.0858V17.888ZM49.0798 6.702H50.2978V7.668C50.2978 10.034 48.9398 12.106 46.6298 12.876L45.9158 11.714C47.9318 11.056 49.0798 9.39 49.0798 7.668V6.702ZM49.3598 6.702H50.5638V7.668C50.5638 9.334 51.7118 10.888 53.6858 11.49L52.9718 12.638C50.6898 11.91 49.3598 9.964 49.3598 7.668V6.702Z" fill="white"/>
</svg>
