<svg width="80" height="24" viewBox="0 0 80 24" fill="none" xmlns="http://www.w3.org/2000/svg">
<path d="M-0.000122071 12C-0.000122071 5.37258 5.37246 0 11.9999 0H67.9999C74.6273 0 79.9999 5.37258 79.9999 12C79.9999 18.6274 74.6273 24 67.9999 24H11.9999C5.37246 24 -0.000122071 18.6274 -0.000122071 12Z" fill="#FF364A"/>
<path d="M30.1 6.366H31.556V19.162H30.1V6.366ZM31.22 11.504H33.544V12.722H31.22V11.504ZM21.574 8.34H29.078V9.516H21.574V8.34ZM25.368 10.44C27.188 10.44 28.532 11.672 28.532 13.422C28.532 15.186 27.188 16.418 25.368 16.418C23.534 16.418 22.19 15.186 22.19 13.422C22.19 11.672 23.534 10.44 25.368 10.44ZM25.368 11.644C24.332 11.644 23.59 12.344 23.59 13.422C23.59 14.5 24.332 15.214 25.368 15.214C26.39 15.214 27.132 14.5 27.132 13.422C27.132 12.344 26.39 11.644 25.368 11.644ZM24.612 6.548H26.082V8.83H24.612V6.548ZM43.6089 6.352H45.0789V19.176H43.6089V6.352ZM35.2369 14.934H36.3289C38.5269 14.934 40.3889 14.85 42.5449 14.486L42.6989 15.676C40.4869 16.054 38.5829 16.138 36.3289 16.138H35.2369V14.934ZM35.2089 7.5H41.1729V12.246H36.7209V15.382H35.2369V11.07H39.6889V8.69H35.2089V7.5ZM47.4018 16.39H58.9938V17.594H47.4018V16.39ZM52.4418 13.478H53.8978V16.712H52.4418V13.478ZM48.6898 7.234H50.1598V9.376H56.1938V7.234H57.6498V13.828H48.6898V7.234ZM50.1598 10.538V12.638H56.1938V10.538H50.1598Z" fill="white"/>
</svg>
