<svg width="74" height="32" viewBox="0 0 74 32" fill="none" xmlns="http://www.w3.org/2000/svg">
<rect x="0.835449" y="0.668335" width="73.1646" height="30.6633" rx="5" fill="#FF364A"/>
<path d="M28.2208 10.8H36.4388V12.27H28.2208V10.8ZM26.7928 14.846H38.5248V16.316H26.7928V14.846ZM35.3188 10.8H37.1528V11.682C37.1528 12.606 37.1528 13.782 36.8168 15.28L34.9828 15.112C35.3188 13.642 35.3188 12.592 35.3188 11.682V10.8ZM28.0948 17.198H37.1108V20.852H29.9708V22.168H28.1088V19.48H35.2628V18.64H28.0948V17.198ZM28.1088 21.72H37.4468V23.162H28.1088V21.72ZM45.1815 11.206H46.5955V12.676C46.5955 14.902 45.7835 17.058 43.7115 17.954L42.7595 16.582C44.5095 15.812 45.1815 14.188 45.1815 12.676V11.206ZM45.6295 11.206H47.0435V12.676C47.0435 14.16 47.6735 15.854 49.4795 16.666L48.6815 18.15C46.4135 17.212 45.6295 14.874 45.6295 12.676V11.206ZM50.3335 11.206H51.7335V12.676C51.7335 14.902 50.9495 17.226 48.6815 18.15L47.8975 16.666C49.6895 15.868 50.3335 14.188 50.3335 12.676V11.206ZM50.7955 11.206H52.2095V12.676C52.2095 14.244 52.8675 15.826 54.6315 16.582L53.6655 17.954C51.5935 17.072 50.7955 14.958 50.7955 12.676V11.206ZM42.8295 20.138H54.5615V21.65H42.8295V20.138ZM64.6404 10.282H66.5164V23.246H64.6404V10.282ZM60.8184 11.626H62.6664C62.6664 15.588 61.3224 18.836 56.7164 21.062L55.7504 19.578C59.4744 17.786 60.8184 15.434 60.8184 11.962V11.626ZM56.4364 11.626H61.7004V13.096H56.4364V11.626Z" fill="white"/>
<path d="M16.085 9.00732C15.7979 9.00732 15.5182 9.11773 15.2974 9.33119L13.7369 10.8917L17.6381 14.8002L19.1986 13.2544C19.6402 12.8054 19.6402 12.1062 19.1986 11.6792L16.8652 9.33119C16.6444 9.11773 16.3647 9.00732 16.085 9.00732ZM13.2143 11.4143L7.25218 17.3838L9.13651 17.5899L9.26901 19.2755L10.9472 19.4006L11.1607 21.2849L17.1228 15.3154M6.8179 18.0683L5.52979 22.9926L10.4614 21.675L10.2848 20.0851L8.58446 19.96L8.45197 18.2523" fill="white"/>
</svg>
