<svg width="14" height="14" viewBox="0 0 14 14" fill="none" xmlns="http://www.w3.org/2000/svg">
<path d="M4.92447 11.1695H4.62537C2.23254 11.1695 1.03613 10.5713 1.03613 7.58026V4.58923C1.03613 2.19641 2.23254 1 4.62537 1H9.41101C11.8038 1 13.0002 2.19641 13.0002 4.58923V7.58026C13.0002 9.97308 11.8038 11.1695 9.41101 11.1695H9.11191C8.92646 11.1695 8.747 11.2592 8.63334 11.4088L7.73603 12.6052C7.34122 13.1316 6.69516 13.1316 6.30034 12.6052L5.40303 11.4088C5.30732 11.2772 5.08598 11.1695 4.92447 11.1695Z" fill="#85BCFF" stroke="#85BCFF" stroke-width="1.25" stroke-miterlimit="10" stroke-linecap="round" stroke-linejoin="round"/>
<path fill-rule="evenodd" clip-rule="evenodd" d="M9.4091 6.38382H9.41447H9.4091Z" fill="#85BCFF"/>
<path d="M9.4091 6.38382H9.41447" stroke="#85BCFF" stroke-width="1.25" stroke-linecap="round" stroke-linejoin="round"/>
<path fill-rule="evenodd" clip-rule="evenodd" d="M7.01554 6.38382H7.02092H7.01554Z" fill="#85BCFF"/>
<path d="M7.01554 6.38382H7.02092" stroke="#85BCFF" stroke-width="1.25" stroke-linecap="round" stroke-linejoin="round"/>
<path fill-rule="evenodd" clip-rule="evenodd" d="M4.62199 6.38382H4.62736H4.62199Z" fill="#85BCFF"/>
<path d="M4.62199 6.38382H4.62736" stroke="#85BCFF" stroke-width="1.25" stroke-linecap="round" stroke-linejoin="round"/>
</svg>
