<svg width="28" height="25" viewBox="0 0 28 25" fill="none" xmlns="http://www.w3.org/2000/svg">
<path d="M12.4033 22.3369L12.4026 22.3363C8.95945 19.214 6.14169 16.6549 4.17888 14.2536C2.22156 11.8589 1.16675 9.68229 1.16675 7.33333C1.16675 3.49007 4.16896 0.5 8.00008 0.5C10.1689 0.5 12.2588 1.51223 13.6207 3.09897L14.0001 3.54105L14.3795 3.09897C15.7414 1.51223 17.8312 0.5 20.0001 0.5C23.8312 0.5 26.8334 3.49007 26.8334 7.33333C26.8334 9.68229 25.7786 11.8589 23.8213 14.2536C21.8585 16.6549 19.0407 19.214 15.5975 22.3363L15.5968 22.3369L14.0001 23.7905L12.4033 22.3369Z" fill="white" stroke="#D9D9D9"/>
</svg>
