<svg width="57" height="56" viewBox="0 0 57 56" fill="none" xmlns="http://www.w3.org/2000/svg">
<path d="M21.2983 0C26.8148 0 32.1054 2.19142 36.0061 6.09218C39.9069 9.99294 42.0983 15.2835 42.0983 20.8C42.0983 25.952 40.2103 30.688 37.1063 34.336L37.9703 35.2H40.4983L56.4983 51.2L51.6983 56L35.6983 40V37.472L34.8343 36.608C31.1863 39.712 26.4503 41.6 21.2983 41.6C15.7818 41.6 10.4912 39.4086 6.59047 35.5078C2.68971 31.6071 0.498291 26.3165 0.498291 20.8C0.498291 15.2835 2.68971 9.99294 6.59047 6.09218C10.4912 2.19142 15.7818 0 21.2983 0ZM21.2983 6.4C13.2983 6.4 6.89829 12.8 6.89829 20.8C6.89829 28.8 13.2983 35.2 21.2983 35.2C29.2983 35.2 35.6983 28.8 35.6983 20.8C35.6983 12.8 29.2983 6.4 21.2983 6.4Z" fill="#D42B53"/>
</svg>
