<svg width="20" height="28" viewBox="0 0 20 28" fill="none" xmlns="http://www.w3.org/2000/svg">
<path d="M10.2 0C12.7991 0 15.2918 1.0325 17.1297 2.87035C18.9675 4.70821 20 7.20088 20 9.8C20 17.15 10.2 28 10.2 28C10.2 28 0.400024 17.15 0.400024 9.8C0.400024 7.20088 1.43252 4.70821 3.27038 2.87035C5.10823 1.0325 7.6009 0 10.2 0ZM10.2 2.8C8.34351 2.8 6.56303 3.5375 5.25028 4.85025C3.93752 6.16301 3.20002 7.94348 3.20002 9.8C3.20002 11.2 3.20002 14 10.2 23.394C17.2 14 17.2 11.2 17.2 9.8C17.2 7.94348 16.4625 6.16301 15.1498 4.85025C13.837 3.5375 12.0565 2.8 10.2 2.8ZM8.80002 5.6H11.6V12.6H8.80002V5.6ZM8.80002 15.4H11.6V18.2H8.80002V15.4Z" fill="#FF364A"/>
</svg>
